<?xml version="1.0" encoding="UTF-8"?>
<!DOCTYPE svg PUBLIC "-//W3C//DTD SVG 1.1//EN" "http://www.w3.org/Graphics/SVG/1.1/DTD/svg11.dtd">
<svg xmlns="http://www.w3.org/2000/svg" version="1.1" width="500px" height="500px" style="shape-rendering:geometricPrecision; text-rendering:geometricPrecision; image-rendering:optimizeQuality; fill-rule:evenodd; clip-rule:evenodd" xmlns:xlink="http://www.w3.org/1999/xlink">
<g><path style="opacity:1" fill="#ff9933" d="M -0.5,-0.5 C 166.167,-0.5 332.833,-0.5 499.5,-0.5C 499.5,166.167 499.5,332.833 499.5,499.5C 332.833,499.5 166.167,499.5 -0.5,499.5C -0.5,332.833 -0.5,166.167 -0.5,-0.5 Z"/></g>
<g><path style="opacity:1" fill="#fdfcfa" d="M 226.5,49.5 C 297.224,44.3369 356.058,68.0036 403,120.5C 453.711,185.873 463.045,256.873 431,333.5C 391.971,409.205 329.638,447.872 244,449.5C 172.119,445.576 116.785,413.576 78,353.5C 48.5876,302.464 41.5876,248.464 57,191.5C 85.5587,110.659 142.059,63.3259 226.5,49.5 Z"/></g>
<g><path style="opacity:1" fill="#1c8a11" d="M 228.5,61.5 C 308.257,56.752 369.424,87.752 412,154.5C 445.657,216.636 445.991,278.97 413,341.5C 372.216,407.486 312.716,439.319 234.5,437C 164.567,429.013 113.067,394.18 80,332.5C 47.7338,258.967 56.0672,190.634 105,127.5C 137.663,89.5851 178.83,67.5851 228.5,61.5 Z"/></g>
<g><path style="opacity:1" fill="#fefefd" d="M 229.5,72.5 C 306.161,68.2405 364.328,98.5739 404,163.5C 429.325,212.785 432.325,263.452 413,315.5C 384.623,378.522 336.123,415.022 267.5,425C 191.244,429.461 133.411,399.294 94,334.5C 69.1198,285.943 65.7865,235.943 84,184.5C 112.349,120.984 160.849,83.6508 229.5,72.5 Z"/></g>
<g><path style="opacity:1" fill="#ff9934" d="M 332.5,245.5 C 332.5,227.5 332.5,209.5 332.5,191.5C 326.833,191.5 321.167,191.5 315.5,191.5C 315.5,209.5 315.5,227.5 315.5,245.5C 310.833,245.5 306.167,245.5 301.5,245.5C 301.5,227.833 301.5,210.167 301.5,192.5C 296.36,191.512 291.026,191.179 285.5,191.5C 285.5,202.167 285.5,212.833 285.5,223.5C 285.035,227.629 282.701,229.629 278.5,229.5C 268.531,227.037 263.698,220.703 264,210.5C 265.848,207.959 268.348,206.959 271.5,207.5C 271.5,202.167 271.5,196.833 271.5,191.5C 264.833,191.5 258.167,191.5 251.5,191.5C 251.5,209.5 251.5,227.5 251.5,245.5C 246.833,245.5 242.167,245.5 237.5,245.5C 237.5,233.833 237.5,222.167 237.5,210.5C 232.489,210.334 227.489,210.501 222.5,211C 227.63,217.111 228.797,223.945 226,231.5C 217.372,240.316 207.539,241.816 196.5,236C 186.189,227.892 179.522,217.392 176.5,204.5C 180.427,203.469 184.261,202.135 188,200.5C 190.612,208.391 194.279,215.724 199,222.5C 202.936,227.486 207.602,228.486 213,225.5C 214.04,221.467 213.374,217.801 211,214.5C 208.438,212.654 206.271,210.487 204.5,208C 205.206,205.38 206.206,202.88 207.5,200.5C 217.478,199.501 227.478,199.168 237.5,199.5C 237.5,197.167 237.5,194.833 237.5,192.5C 213.672,191.502 189.672,191.169 165.5,191.5C 165.5,209.5 165.5,227.5 165.5,245.5C 161.167,245.5 156.833,245.5 152.5,245.5C 152.5,227.5 152.5,209.5 152.5,191.5C 147.125,191.172 141.792,191.505 136.5,192.5C 136.624,193.107 136.957,193.44 137.5,193.5C 138.403,200.724 136.736,207.224 132.5,213C 128.796,215.513 125.13,218.013 121.5,220.5C 127.697,226.863 134.364,232.697 141.5,238C 138.333,241.167 135.167,244.333 132,247.5C 122.696,239.197 113.696,230.531 105,221.5C 102.547,218.425 101.047,214.925 100.5,211C 101.75,204.099 105.75,201.766 112.5,204C 117.649,208.062 121.149,206.895 123,200.5C 123.498,197.518 123.665,194.518 123.5,191.5C 114.833,191.5 106.167,191.5 97.5,191.5C 97.5,187.833 97.5,184.167 97.5,180.5C 115.845,180.833 134.179,180.5 152.5,179.5C 152.376,178.893 152.043,178.56 151.5,178.5C 150.728,173.456 148.728,168.956 145.5,165C 140.916,163.228 136.249,163.061 131.5,164.5C 131.208,160.793 130.208,157.293 128.5,154C 134.962,151.069 141.629,150.735 148.5,153C 152.26,154.461 155.093,156.961 157,160.5C 160.53,166.723 163.363,173.223 165.5,180C 244.499,180.5 323.499,180.667 402.5,180.5C 402.5,184.167 402.5,187.833 402.5,191.5C 399.753,191.187 397.086,191.52 394.5,192.5C 397.078,206.168 391.745,215.335 378.5,220C 384.789,226.468 391.456,232.468 398.5,238C 395.651,241.016 392.651,243.85 389.5,246.5C 380.588,240.093 372.421,232.759 365,224.5C 360.015,219.879 358.015,214.212 359,207.5C 364.005,202.533 369.505,202.2 375.5,206.5C 376.814,205.687 377.981,204.687 379,203.5C 380.354,199.637 380.854,195.637 380.5,191.5C 369.167,191.5 357.833,191.5 346.5,191.5C 346.5,209.5 346.5,227.5 346.5,245.5C 341.833,245.5 337.167,245.5 332.5,245.5 Z"/></g>
<g><path style="opacity:1" fill="#ffdbb7" d="M 151.5,178.5 C 152.043,178.56 152.376,178.893 152.5,179.5C 134.179,180.5 115.845,180.833 97.5,180.5C 115.5,179.833 133.5,179.167 151.5,178.5 Z"/></g>
<g><path style="opacity:1" fill="#ffd1a3" d="M 152.5,245.5 C 151.503,228.008 151.17,210.341 151.5,192.5C 146.637,192.181 141.97,192.514 137.5,193.5C 136.957,193.44 136.624,193.107 136.5,192.5C 141.792,191.505 147.125,191.172 152.5,191.5C 152.5,209.5 152.5,227.5 152.5,245.5 Z"/></g>
<g><path style="opacity:1" fill="#ffd4aa" d="M 237.5,192.5 C 213.833,192.5 190.167,192.5 166.5,192.5C 166.83,210.341 166.497,228.008 165.5,245.5C 165.5,227.5 165.5,209.5 165.5,191.5C 189.672,191.169 213.672,191.502 237.5,192.5 Z"/></g>
<g><path style="opacity:1" fill="#ffdcb9" d="M 301.5,192.5 C 296.5,192.5 291.5,192.5 286.5,192.5C 286.828,203.014 286.494,213.347 285.5,223.5C 285.5,212.833 285.5,202.167 285.5,191.5C 291.026,191.179 296.36,191.512 301.5,192.5 Z"/></g>
<g><path style="opacity:1" fill="#ffeddc" d="M 332.5,245.5 C 331.503,228.008 331.17,210.341 331.5,192.5C 326.5,192.5 321.5,192.5 316.5,192.5C 316.83,210.341 316.497,228.008 315.5,245.5C 315.5,227.5 315.5,209.5 315.5,191.5C 321.167,191.5 326.833,191.5 332.5,191.5C 332.5,209.5 332.5,227.5 332.5,245.5 Z"/></g>
<g><path style="opacity:1" fill="#ff9a36" d="M 173.5,290.5 C 172.539,292.265 172.205,294.265 172.5,296.5C 171.167,296.5 169.833,296.5 168.5,296.5C 158.936,294.721 155.436,289.055 158,279.5C 166.303,272.031 175.137,271.531 184.5,278C 185.794,280.087 186.961,282.254 188,284.5C 188.499,289.823 188.666,295.156 188.5,300.5C 193.5,300.5 198.5,300.5 203.5,300.5C 203.5,295.167 203.5,289.833 203.5,284.5C 200.5,284.5 197.5,284.5 194.5,284.5C 194.5,281.167 194.5,277.833 194.5,274.5C 245.167,274.5 295.833,274.5 346.5,274.5C 346.5,277.833 346.5,281.167 346.5,284.5C 343.5,284.5 340.5,284.5 337.5,284.5C 337.5,299.833 337.5,315.167 337.5,330.5C 333.5,330.5 329.5,330.5 325.5,330.5C 325.5,321.5 325.5,312.5 325.5,303.5C 320.156,303.334 314.823,303.501 309.5,304C 304.962,305.664 303.462,308.831 305,313.5C 307.98,317.314 311.146,320.981 314.5,324.5C 312.5,327.167 310.167,329.5 307.5,331.5C 298.846,326.186 293.846,318.52 292.5,308.5C 292.381,301.9 295.381,297.4 301.5,295C 309.429,293.637 317.429,293.137 325.5,293.5C 325.5,290.5 325.5,287.5 325.5,284.5C 311.5,284.5 297.5,284.5 283.5,284.5C 285.426,296.485 280.76,304.651 269.5,309C 275.342,314.011 281.009,319.177 286.5,324.5C 284.466,327.369 281.966,329.702 279,331.5C 268.636,324.136 259.97,315.136 253,304.5C 251.5,296.667 254.667,293.5 262.5,295C 264.329,295.273 265.829,296.107 267,297.5C 270.979,294.09 272.479,289.757 271.5,284.5C 261.833,284.5 252.167,284.5 242.5,284.5C 242.5,299.833 242.5,315.167 242.5,330.5C 238.5,330.5 234.5,330.5 230.5,330.5C 230.5,315.167 230.5,299.833 230.5,284.5C 225.5,284.5 220.5,284.5 215.5,284.5C 215.5,299.833 215.5,315.167 215.5,330.5C 211.5,330.5 207.5,330.5 203.5,330.5C 203.5,323.833 203.5,317.167 203.5,310.5C 198.5,310.5 193.5,310.5 188.5,310.5C 189.172,317.329 186.172,320.163 179.5,319C 171.996,315.545 168.996,309.878 170.5,302C 172.345,300.872 174.345,300.372 176.5,300.5C 176.897,295.041 176.397,289.708 175,284.5C 172.847,282.556 170.347,282.056 167.5,283C 166.14,284.938 166.473,286.604 168.5,288C 170.744,288.05 172.411,288.883 173.5,290.5 Z"/></g>
<g><path style="opacity:1" fill="#ffc389" d="M 173.5,290.5 C 173.5,292.833 173.5,295.167 173.5,297.5C 171.585,297.784 169.919,297.451 168.5,296.5C 169.833,296.5 171.167,296.5 172.5,296.5C 172.205,294.265 172.539,292.265 173.5,290.5 Z"/></g>
</svg>
